<?xml version="1.0" encoding="iso-8859-1"?>
<!-- Generator: Adobe Illustrator 19.0.0, SVG Export Plug-In . SVG Version: 6.00 Build 0)  -->
<svg version="1.1" id="Capa_1" xmlns="http://www.w3.org/2000/svg" xmlns:xlink="http://www.w3.org/1999/xlink" x="0px" y="0px"
	 viewBox="0 0 512.305 512.305" style="enable-background:new 0 0 512.305 512.305;" xml:space="preserve">
<path style="fill:#F44336;" d="M238.004,177.944C183.124,53.496,274.228,0.152,274.228,0.152
	c46.08,115.552,110.08,116.608,110.08,195.2c2.62,66.382-49.07,122.318-115.451,124.938c-4.065,0.16-8.136,0.115-12.197-0.138
	c-93.152,0.352-163.552-79.296-109.408-208.352C183.124,187.928,238.004,177.944,238.004,177.944z"/>
<path style="fill:#6D4C41;" d="M32.308,496.152c-17.673,0.035-32.028-14.264-32.063-31.937
	c-0.028-14.331,9.476-26.934,23.263-30.847l448-128c17.002-4.842,34.71,5.014,39.552,22.016c4.842,17.002-5.014,34.71-22.016,39.552
	l-448,128C38.198,495.722,35.261,496.131,32.308,496.152z"/>
<path style="fill:#8D6E63;" d="M32.308,304.152c-17.673-0.035-32.028,14.264-32.063,31.937
	c-0.028,14.331,9.476,26.934,23.263,30.847l448,128c17.002,4.842,34.71-5.014,39.552-22.016c4.842-17.002-5.014-34.71-22.016-39.552
	l-448-128C38.198,304.582,35.261,304.173,32.308,304.152z"/>
<path d="M370.132,415.448l-9.408-30.592l108.16-33.28c8.51-2.554,13.338-11.522,10.784-20.032
	c-2.554-8.51-11.522-13.338-20.032-10.784l-198.624,61.088l-9.408-30.592l198.72-61.12c25.358-7.73,52.181,6.559,59.911,31.917
	c0.008,0.028,0.017,0.055,0.025,0.083c7.581,25.355-6.557,52.107-31.776,60.128L370.132,415.448z"/>
<path d="M48.308,512.152c-26.509,0.17-48.137-21.182-48.307-47.691c-0.137-21.282,13.757-40.112,34.131-46.261l108.352-33.344
	l9.408,30.592l-108.16,33.28c-8.52,2.343-13.528,11.149-11.186,19.669c1.943,7.065,8.436,11.908,15.762,11.755
	c1.401,0.065,2.804-0.086,4.16-0.448l199.136-61.248l9.408,30.592l-198.72,61.12C57.769,511.584,53.046,512.254,48.308,512.152z"/>
<path d="M464.308,512.152c-4.794,0.01-9.562-0.702-14.144-2.112l-416-128c-25.334-7.812-39.54-34.682-31.728-60.016
	s34.682-39.54,60.016-31.728l416,128c25.326,7.834,39.505,34.716,31.671,60.041C503.908,498.428,485.338,512.134,464.308,512.152z
	 M48.308,320.152c-2.555,0.001-5.071,0.627-7.328,1.824c-7.849,4.06-10.92,13.714-6.86,21.562c1.992,3.85,5.46,6.728,9.612,7.974
	l416,128c8.442,2.362,17.252-2.31,20.032-10.624c2.589-8.449-2.161-17.397-10.61-19.986c-0.015-0.005-0.031-0.009-0.046-0.014
	l-416-128C51.557,320.392,49.937,320.144,48.308,320.152z"/>
<path d="M256.116,320.152c-42.108,1.412-82.086-18.517-106.304-52.992c-27.539-48.236-28.923-107.1-3.68-156.576
	c2.408-5.903,8.091-9.812,14.464-9.952c6.472-0.452,12.497,3.323,14.912,9.344c7.392,19.983,21.881,36.546,40.704,46.528
	c-20.879-56.185-1.383-119.389,47.52-154.048c7.56-4.574,17.398-2.154,21.972,5.407c0.481,0.795,0.892,1.631,1.228,2.497
	c12.995,34.153,32.491,65.462,57.408,92.192c25.142,22.919,39.621,55.261,39.968,89.28c3.279,67.573-48.842,125.01-116.415,128.289
	c-3.731,0.181-7.469,0.191-11.201,0.031H256.116z M165.236,154.904c-9.823,31.596-5.8,65.874,11.072,94.336
	c18.357,25.561,48.332,40.182,79.776,38.912h0.48c50.208,2.684,93.086-35.843,95.769-86.051c0.181-3.389,0.173-6.785-0.025-10.173
	c-0.402-26.339-12.047-51.249-32-68.448c-22.191-24.051-40.54-51.38-54.4-81.024c-17.312,18.816-40.032,59.392-10.912,127.296
	c1.947,4.451,1.734,9.55-0.576,13.824c-2.287,4.284-6.395,7.298-11.168,8.192C212.426,194.876,182.408,180.692,165.236,154.904z"/>
<g>
</g>
<g>
</g>
<g>
</g>
<g>
</g>
<g>
</g>
<g>
</g>
<g>
</g>
<g>
</g>
<g>
</g>
<g>
</g>
<g>
</g>
<g>
</g>
<g>
</g>
<g>
</g>
<g>
</g>
</svg>
